<svg xmlns="http://www.w3.org/2000/svg" width="15" height="18" viewBox="0 0 15 18"><defs><style>.a{fill:#a3a8b2;}</style></defs><path class="a" d="M1311.405,162a1.228,1.228,0,0,1-1.282-1.217V149.354H1309v-2.007a1.247,1.247,0,0,1,1.294-1.228h2.544v-1.562a.565.565,0,0,1,.588-.558h6.041a.08.08,0,0,1,.043.021.087.087,0,0,1,.064-.021.575.575,0,0,1,.6.558v1.562h2.533a1.247,1.247,0,0,1,1.294,1.228v2.007h-1.111v11.429a1.239,1.239,0,0,1-1.294,1.217Zm-.107-1.217c0,.071.032.1.107.1h10.189c.075,0,.107-.03.107-.1V149.354h-10.4Zm-1.111-13.436v.892h12.626v-.892c0-.071-.031-.113-.107-.113h-12.412C1310.219,147.235,1310.187,147.276,1310.187,147.347Zm3.828-1.228h4.972v-1h-4.972Zm4.636,13.771v-9.23h1.19v9.23Zm-2.731,0v-9.23h1.191v9.23Zm-2.74,0v-9.23h1.19v9.23Z" transform="translate(-1309 -144)"/></svg>