<svg xmlns="http://www.w3.org/2000/svg" width="21.336" height="21.229" viewBox="0 0 21.336 21.229"><defs><style>.a{opacity:0.5;}.b{fill:#454f63;}</style></defs><g class="a" transform="translate(0 -0.26)"><path class="b" d="M19.692,50.426a.531.531,0,0,0-.531.531v4.718a1.6,1.6,0,0,1-1.594,1.594H2.657a1.6,1.6,0,0,1-1.594-1.594V41.829a1.6,1.6,0,0,1,1.594-1.594H7.375a.531.531,0,0,0,0-1.063H2.657A2.66,2.66,0,0,0,0,41.829V55.676a2.66,2.66,0,0,0,2.657,2.657h14.91a2.66,2.66,0,0,0,2.657-2.657V50.958A.531.531,0,0,0,19.692,50.426Zm0,0" transform="translate(0 -36.843)"/><path class="b" d="M122.454.961a2.391,2.391,0,0,0-3.382,0l-9.48,9.48a.531.531,0,0,0-.136.234l-1.247,4.5a.531.531,0,0,0,.654.654l4.5-1.247a.531.531,0,0,0,.234-.136l9.48-9.48a2.394,2.394,0,0,0,0-3.382Zm-11.7,9.825,7.759-7.759,2.5,2.5-7.759,7.759Zm-.5,1,2,2-2.765.766Zm12.076-7.575-.564.564-2.5-2.5.564-.564a1.328,1.328,0,0,1,1.878,0l.624.624A1.33,1.33,0,0,1,122.326,4.215Zm0,0" transform="translate(-102.441)"/></g></svg>