<svg width="35" height="32" viewBox="0 0 35 32" fill="none" xmlns="http://www.w3.org/2000/svg">
<g id="bx:heart">
<path id="Vector" d="M18.5006 6.35823C17.0256 4.87345 15.095 4.04939 13.0912 4.04932C12.0306 4.05053 10.9808 4.28133 10.002 4.72846C9.02322 5.17558 8.13488 5.8302 7.38809 6.65463C4.20284 10.1565 4.2042 15.6339 7.3908 19.121L17.3161 29.9869C17.5462 30.43 17.9902 30.716 18.5006 30.716C18.7101 30.7138 18.9163 30.6578 19.1025 30.5525C19.2887 30.4472 19.4497 30.2956 19.5727 30.1099L29.6104 19.121C32.797 15.6324 32.797 10.1565 29.6077 6.6487C28.8613 5.82579 27.9736 5.1725 26.9958 4.72641C26.018 4.28031 24.9693 4.05021 23.91 4.04932C21.9063 4.04967 19.9757 4.8737 18.5006 6.35823ZM27.6936 8.74422C29.8094 11.0724 29.8107 14.7092 27.6963 17.0255L18.5006 27.0926L9.30493 17.0255C7.19045 14.7092 7.19181 11.0724 9.30222 8.75014C10.331 7.62977 11.6766 7.01327 13.0912 7.01327C14.5058 7.01327 15.846 7.62977 16.8667 8.74718L17.5435 9.48817C17.6691 9.62591 17.8183 9.73519 17.9825 9.80975C18.1468 9.88431 18.3228 9.92268 18.5006 9.92268C18.6784 9.92268 18.8544 9.88431 19.0186 9.80975C19.1829 9.73519 19.3321 9.62591 19.4577 9.48817L20.1345 8.74718C22.1813 6.51088 25.6495 6.51681 27.6936 8.74422Z" fill="#262825"/>
</g>
</svg>
