<svg width="35" height="32" viewBox="0 0 35 32" fill="none" xmlns="http://www.w3.org/2000/svg">
<g id="humbleicons:cart">
<g id="Group">
<path id="Vector" d="M10.5364 31.2C12.0466 31.2 13.2708 30.0061 13.2708 28.5334C13.2708 27.0606 12.0466 25.8667 10.5364 25.8667C9.02628 25.8667 7.80206 27.0606 7.80206 28.5334C7.80206 30.0061 9.02628 31.2 10.5364 31.2Z" fill="#262825"/>
<path id="Vector_2" d="M26.2136 31.2C27.7237 31.2 28.9479 30.0061 28.9479 28.5334C28.9479 27.0606 27.7237 25.8667 26.2136 25.8667C24.7034 25.8667 23.4792 27.0606 23.4792 28.5334C23.4792 30.0061 24.7034 31.2 26.2136 31.2Z" fill="#262825"/>
<path id="Vector_3" d="M5 4.5332H8.125L9.0625 9.86654M9.0625 9.86654L11.25 22.311H26.875L30 9.86654H9.0625Z" stroke="#262825" stroke-width="2.5" stroke-linecap="round" stroke-linejoin="round"/>
</g>
</g>
</svg>
