<svg width="35" height="32" viewBox="0 0 35 32" fill="none" xmlns="http://www.w3.org/2000/svg">
<g id="ant-design:home-filled">
<path id="Vector" d="M31.0098 15.7408L18.9424 2.91802C18.8555 2.82544 18.7523 2.75199 18.6387 2.70188C18.5251 2.65177 18.4033 2.62598 18.2803 2.62598C18.1573 2.62598 18.0355 2.65177 17.9219 2.70188C17.8083 2.75199 17.7051 2.82544 17.6182 2.91802L5.55078 15.7408C5.19922 16.1147 5 16.6225 5 17.1521C5 18.2518 5.84082 19.1459 6.875 19.1459H8.14648V28.2957C8.14648 28.8471 8.56543 29.2926 9.08398 29.2926H16.4053V22.3142H19.6865V29.2926H27.4766C27.9951 29.2926 28.4141 28.8471 28.4141 28.2957V19.1459H29.6855C30.1836 19.1459 30.6611 18.9372 31.0127 18.5602C31.7422 17.7814 31.7422 16.5197 31.0098 15.7408Z" fill="#262825"/>
</g>
</svg>
