<svg xmlns="http://www.w3.org/2000/svg" width="370.604" height="337.325" viewBox="0 0 370.604 337.325">
  <g id="Group_6134" data-name="Group 6134" transform="translate(-4.193 -153.839)">
    <g id="Group_1403" data-name="Group 1403" transform="translate(-654)">
      <g id="Ellipse_1_copy" data-name="Ellipse 1 copy" transform="translate(948.295 247.941)" fill="none" stroke="#fff" stroke-width="1">
        <circle cx="20.759" cy="20.759" r="20.759" stroke="none"/>
        <circle cx="20.759" cy="20.759" r="20.259" fill="none"/>
      </g>
      <ellipse id="Ellipse_1" data-name="Ellipse 1" cx="17.764" cy="17.73" rx="17.764" ry="17.73" transform="translate(951.346 250.992)" fill="#fff" opacity="0.23"/>
      <g id="Ellipse_1_copy-2" data-name="Ellipse 1 copy" transform="translate(935.193 234.839)" fill="none" stroke="#fff" stroke-width="10" opacity="0.142">
        <circle cx="33.86" cy="33.86" r="33.86" stroke="none"/>
        <circle cx="33.86" cy="33.86" r="28.86" fill="none"/>
      </g>
      <g id="security-camera" transform="translate(958.445 260.736)">
        <path id="XMLID_864_" d="M21.659,50.123a.827.827,0,0,0-.8-.036l-2.662,1.331v-.592A.827.827,0,0,0,17.365,50H4.686a.827.827,0,0,0-.827.827v6.615a.827.827,0,0,0,.827.827H7.309a2.489,2.489,0,0,0,.729,1.058L6.871,62.4H4.961V60.75a.827.827,0,0,0-.827-.827H.827A.827.827,0,0,0,0,60.75v4.961a.827.827,0,0,0,.827.827H4.135a.827.827,0,0,0,.827-.827V64.057H7.442a.827.827,0,0,0,.773-.534l1.366-3.6.066,0a2.485,2.485,0,0,0,2.339-1.654h5.379a.827.827,0,0,0,.827-.827V56.85l2.662,1.331a.827.827,0,0,0,1.2-.74V50.827A.827.827,0,0,0,21.659,50.123ZM5.513,51.654H16.538v1.654H5.513Z" transform="translate(0 -50)" fill="#fff"/>
      </g>
    </g>
    <g id="Group_5976" data-name="Group 5976" transform="translate(-745 -81)">
      <g id="Ellipse_1_copy-3" data-name="Ellipse 1 copy" transform="translate(944.897 244.544)" fill="none" stroke="#fff" stroke-width="1">
        <circle cx="15.376" cy="15.376" r="15.376" stroke="none"/>
        <circle cx="15.376" cy="15.376" r="14.876" fill="none"/>
      </g>
      <ellipse id="Ellipse_1-2" data-name="Ellipse 1" cx="13.158" cy="13.133" rx="13.158" ry="13.133" transform="translate(947.157 246.804)" fill="#fff" opacity="0.23"/>
      <g id="Ellipse_1_copy-4" data-name="Ellipse 1 copy" transform="translate(935.193 234.839)" fill="none" stroke="#fff" stroke-width="8" opacity="0.142">
        <circle cx="25.08" cy="25.08" r="25.08" stroke="none"/>
        <circle cx="25.08" cy="25.08" r="21.08" fill="none"/>
      </g>
      <g id="wifi-connection-signal-symbol" transform="translate(951.269 253.428)">
        <g id="Wi-Fi" transform="translate(0 0)">
          <g id="Group_3" data-name="Group 3">
            <path id="Path_120" data-name="Path 120" d="M8.7,9.531a1.588,1.588,0,1,0,1.588,1.588A1.589,1.589,0,0,0,8.7,9.531Zm8.511-5.554a11.1,11.1,0,0,0-17.022,0A.794.794,0,0,0,1.4,5,9.507,9.507,0,0,1,15.992,5a.794.794,0,0,0,1.216-1.021ZM8.7,3.177a7.928,7.928,0,0,0-6.079,2.84A.794.794,0,0,0,3.834,7.039a6.338,6.338,0,0,1,9.726,0,.794.794,0,0,0,1.216-1.022A7.93,7.93,0,0,0,8.7,3.177Zm0,3.177a4.755,4.755,0,0,0-3.648,1.7A.794.794,0,0,0,6.266,9.08a3.167,3.167,0,0,1,4.863,0,.794.794,0,0,0,1.216-1.022A4.756,4.756,0,0,0,8.7,6.354Z" transform="translate(0 0)" fill="#fff"/>
          </g>
        </g>
      </g>
    </g>
    <g id="Group_5977" data-name="Group 5977" transform="translate(75 -18.972)">
      <g id="Ellipse_1_copy-5" data-name="Ellipse 1 copy" transform="translate(105.774 298.421)" fill="none" stroke="#fff" stroke-width="1">
        <circle cx="16.765" cy="16.765" r="16.765" stroke="none"/>
        <circle cx="16.765" cy="16.765" r="16.265" fill="none"/>
      </g>
      <ellipse id="Ellipse_1-3" data-name="Ellipse 1" cx="14.346" cy="14.319" rx="14.346" ry="14.319" transform="translate(108.238 300.885)" fill="#fff" opacity="0.23"/>
      <g id="Ellipse_1_copy-6" data-name="Ellipse 1 copy" transform="translate(95.193 287.839)" fill="none" stroke="#fff" stroke-width="8" opacity="0.142">
        <circle cx="27.346" cy="27.346" r="27.346" stroke="none"/>
        <circle cx="27.346" cy="27.346" r="23.346" fill="none"/>
      </g>
      <path id="XMLID_49_" d="M20.625,15.93v.533a.845.845,0,0,1-.716.836l-.131.484a.6.6,0,0,1-.581.446h-1.3a.6.6,0,0,1-.581-.446l-.128-.484a.849.849,0,0,1-.72-.84v-.533a.512.512,0,0,1,.514-.514h3.132A.518.518,0,0,1,20.625,15.93Zm2.412-7.179a4.468,4.468,0,0,1-1.26,3.117,4.118,4.118,0,0,0-1.1,2.235.743.743,0,0,1-.735.626H17.152a.735.735,0,0,1-.731-.623,4.164,4.164,0,0,0-1.11-2.243,4.49,4.49,0,1,1,7.727-3.113ZM19.053,6.031a.507.507,0,0,0-.506-.506,3.244,3.244,0,0,0-3.241,3.241.506.506,0,1,0,1.013,0,2.231,2.231,0,0,1,2.228-2.228A.5.5,0,0,0,19.053,6.031Zm-.506-3.244a.507.507,0,0,0,.506-.506V.506a.506.506,0,1,0-1.013,0V2.28A.507.507,0,0,0,18.547,2.787Zm-5.96,5.96a.507.507,0,0,0-.506-.506H10.306a.506.506,0,0,0,0,1.013H12.08A.5.5,0,0,0,12.587,8.747Zm14.2-.506H25.013a.506.506,0,1,0,0,1.013h1.774a.506.506,0,0,0,0-1.013ZM13.618,12.963l-1.257,1.257a.505.505,0,0,0,.713.716l1.257-1.257a.505.505,0,0,0-.713-.716Zm9.5-8.282a.506.506,0,0,0,.356-.146l1.257-1.257a.507.507,0,0,0-.716-.716L22.759,3.818a.5.5,0,0,0,0,.716A.514.514,0,0,0,23.119,4.681Zm-9.5-.15a.505.505,0,1,0,.713-.716L13.074,2.558a.507.507,0,0,0-.716.716Zm9.857,8.432a.507.507,0,1,0-.716.716l1.257,1.257a.505.505,0,1,0,.713-.716Z" transform="translate(103.759 305.81)" fill="#fff"/>
    </g>
    <line id="Line_72" data-name="Line 72" x1="10" y2="64" transform="translate(197.5 204.5)" fill="none" stroke="#fff" stroke-width="1" opacity="0.257"/>
    <line id="Line_73" data-name="Line 73" x2="67" y2="44" transform="translate(238.5 190.5)" fill="none" stroke="#fff" stroke-width="1" opacity="0.257"/>
    <line id="Line_74" data-name="Line 74" y1="19" x2="59" transform="translate(224.5 283.5)" fill="none" stroke="#fff" stroke-width="1" opacity="0.257"/>
    <g id="Group_5978" data-name="Group 5978" transform="translate(-667 121.721)">
      <g id="Ellipse_1_copy-7" data-name="Ellipse 1 copy" transform="translate(943.706 243.352)" fill="none" stroke="#fff" stroke-width="1">
        <circle cx="13.487" cy="13.487" r="13.487" stroke="none"/>
        <circle cx="13.487" cy="13.487" r="12.987" fill="none"/>
      </g>
      <ellipse id="Ellipse_1-4" data-name="Ellipse 1" cx="11.542" cy="11.52" rx="11.542" ry="11.52" transform="translate(945.688 245.334)" fill="#fff" opacity="0.23"/>
      <g id="Ellipse_1_copy-8" data-name="Ellipse 1 copy" transform="translate(935.193 234.839)" fill="none" stroke="#fff" stroke-width="6" opacity="0.142">
        <circle cx="22" cy="22" r="22" stroke="none"/>
        <circle cx="22" cy="22" r="19" fill="none"/>
      </g>
    </g>
    <line id="Line_75" data-name="Line 75" y1="78" x2="113" transform="translate(80.5 190.5)" fill="none" stroke="#fff" stroke-width="1" opacity="0.345"/>
    <line id="Line_76" data-name="Line 76" y1="4" x2="74" transform="translate(96.5 302.5)" fill="none" stroke="#fff" stroke-width="1" opacity="0.345"/>
    <g id="Group_5979" data-name="Group 5979" transform="translate(-53 -18.972)">
      <g id="Ellipse_1_copy-9" data-name="Ellipse 1 copy" transform="translate(105.774 298.421)" fill="none" stroke="#fff" stroke-width="1">
        <circle cx="16.765" cy="16.765" r="16.765" stroke="none"/>
        <circle cx="16.765" cy="16.765" r="16.265" fill="none"/>
      </g>
      <ellipse id="Ellipse_1-5" data-name="Ellipse 1" cx="14.346" cy="14.319" rx="14.346" ry="14.319" transform="translate(108.238 300.885)" fill="#fff" opacity="0.23"/>
      <g id="Ellipse_1_copy-10" data-name="Ellipse 1 copy" transform="translate(95.193 287.839)" fill="none" stroke="#fff" stroke-width="8" opacity="0.142">
        <circle cx="27.346" cy="27.346" r="27.346" stroke="none"/>
        <circle cx="27.346" cy="27.346" r="23.346" fill="none"/>
      </g>
    </g>
    <g id="air-conditioner" transform="translate(58 214.925)">
      <g id="Group_5981" data-name="Group 5981" transform="translate(0 75.54)">
        <g id="Group_5980" data-name="Group 5980" transform="translate(0 0)">
          <path id="Path_3135" data-name="Path 3135" d="M21.083,75.54H1.11A1.111,1.111,0,0,0,0,76.65v7.4a1.111,1.111,0,0,0,1.11,1.11H21.083a1.111,1.111,0,0,0,1.11-1.11v-7.4A1.111,1.111,0,0,0,21.083,75.54ZM9.617,78.129h2.959a.37.37,0,0,1,0,.74H9.617a.37.37,0,0,1,0-.74Zm10.727,5.548H1.849a.37.37,0,0,1,0-.74H20.344a.37.37,0,0,1,0,.74Zm0-1.48H1.849a.37.37,0,1,1,0-.74H20.344a.37.37,0,1,1,0,.74Z" transform="translate(0 -75.54)" fill="#fff"/>
          <path id="Path_3136" data-name="Path 3136" d="M227.9,312.444c-.338-.175-.54-.4-.54-.6s.2-.421.54-.6a.37.37,0,1,0-.34-.657,1.305,1.305,0,0,0,0,2.506c.338.175.54.4.54.6s-.2.421-.54.6a.37.37,0,0,0,.171.7.365.365,0,0,0,.17-.042,1.305,1.305,0,0,0,0-2.506Z" transform="translate(-216.635 -300.197)" fill="#fff"/>
          <path id="Path_3137" data-name="Path 3137" d="M135.575,329.228c-.338-.175-.54-.4-.54-.6s.2-.421.54-.6a.37.37,0,1,0-.34-.657,1.305,1.305,0,0,0,0,2.506c.338.175.54.4.54.6s-.2.421-.54.6a.37.37,0,0,0,.171.7.365.365,0,0,0,.17-.042,1.305,1.305,0,0,0,0-2.506Z" transform="translate(-128.377 -316.241)" fill="#fff"/>
          <path id="Path_3138" data-name="Path 3138" d="M320.23,329.228c-.338-.175-.54-.4-.54-.6s.2-.421.54-.6a.37.37,0,1,0-.34-.657,1.305,1.305,0,0,0,0,2.506c.338.175.54.4.54.6s-.2.421-.54.6a.37.37,0,0,0,.171.7.365.365,0,0,0,.17-.042,1.305,1.305,0,0,0,0-2.506Z" transform="translate(-304.894 -316.241)" fill="#fff"/>
        </g>
      </g>
    </g>
    <g id="Group_5982" data-name="Group 5982" transform="translate(-785 165)">
      <g id="Ellipse_1_copy-11" data-name="Ellipse 1 copy" transform="translate(944.897 244.544)" fill="none" stroke="#fff" stroke-width="1">
        <circle cx="15.376" cy="15.376" r="15.376" stroke="none"/>
        <circle cx="15.376" cy="15.376" r="14.876" fill="none"/>
      </g>
      <ellipse id="Ellipse_1-6" data-name="Ellipse 1" cx="13.158" cy="13.133" rx="13.158" ry="13.133" transform="translate(947.157 246.804)" fill="#fff" opacity="0.23"/>
      <g id="Ellipse_1_copy-12" data-name="Ellipse 1 copy" transform="translate(935.193 234.839)" fill="none" stroke="#fff" stroke-width="8" opacity="0.142">
        <circle cx="25.08" cy="25.08" r="25.08" stroke="none"/>
        <circle cx="25.08" cy="25.08" r="21.08" fill="none"/>
      </g>
    </g>
    <path id="Path_3139" data-name="Path 3139" d="M1413.273,262.5l57.133,46.09" transform="translate(-1198 57)" fill="none" stroke="#fff" stroke-width="1" opacity="0.26"/>
    <line id="Line_77" data-name="Line 77" y1="55" x2="17" transform="translate(297.5 302.5)" fill="none" stroke="#fff" stroke-width="1" opacity="0.26"/>
    <line id="Line_78" data-name="Line 78" x1="77" y1="83" transform="translate(80.5 323.5)" fill="none" stroke="#fff" stroke-width="1" opacity="0.26"/>
    <line id="Line_80" data-name="Line 80" y1="21" x2="75" transform="translate(197.5 390.5)" fill="none" stroke="#fff" stroke-width="1" opacity="0.26"/>
    <g id="Group_5985" data-name="Group 5985" transform="translate(-931 188.721)">
      <g id="Ellipse_1_copy-13" data-name="Ellipse 1 copy" transform="translate(945.37 245.017)" fill="none" stroke="#fff" stroke-width="1">
        <circle cx="16.125" cy="16.125" r="16.125" stroke="none"/>
        <circle cx="16.125" cy="16.125" r="15.625" fill="none"/>
      </g>
      <ellipse id="Ellipse_1-7" data-name="Ellipse 1" cx="13.798" cy="13.772" rx="13.798" ry="13.772" transform="translate(947.74 247.386)" fill="#fff" opacity="0.23"/>
      <g id="Ellipse_1_copy-14" data-name="Ellipse 1 copy" transform="translate(935.193 234.839)" fill="none" stroke="#fff" stroke-width="8" opacity="0.142">
        <circle cx="26.302" cy="26.302" r="26.302" stroke="none"/>
        <circle cx="26.302" cy="26.302" r="22.302" fill="none"/>
      </g>
      <g id="shield" transform="translate(954.386 253.077)">
        <path id="Path_2458" data-name="Path 2458" d="M123.6,158.457a3.162,3.162,0,1,0,3.162,3.162A3.166,3.166,0,0,0,123.6,158.457Zm1.877,2.567-2.265,2.265a.487.487,0,0,1-.689,0l-.866-.866a.487.487,0,0,1,.689-.689l.521.521,1.921-1.921a.487.487,0,0,1,.689.689Zm0,0" transform="translate(-116.537 -153.321)" fill="#fff"/>
        <path id="Path_2459" data-name="Path 2459" d="M14.116,4.5V4.489c-.007-.159-.012-.328-.015-.516A1.759,1.759,0,0,0,12.445,2.25,6.825,6.825,0,0,1,7.8.292L7.788.282a1.062,1.062,0,0,0-1.443,0l-.011.01A6.826,6.826,0,0,1,1.689,2.25,1.759,1.759,0,0,0,.032,3.973c0,.186-.008.355-.015.516v.03a17.986,17.986,0,0,0,.727,6.565,8.357,8.357,0,0,0,2.005,3.123,10.489,10.489,0,0,0,3.924,2.321,1.213,1.213,0,0,0,.161.044,1.188,1.188,0,0,0,.467,0,1.215,1.215,0,0,0,.161-.044,10.5,10.5,0,0,0,3.919-2.322,8.37,8.37,0,0,0,2.005-3.124A18.014,18.014,0,0,0,14.116,4.5Zm-7.05,7.931A4.136,4.136,0,1,1,11.2,8.3,4.141,4.141,0,0,1,7.066,12.433Zm0,0" transform="translate(0 0.001)" fill="#fff"/>
      </g>
    </g>
    <line id="Line_81" data-name="Line 81" y1="102" x2="20" transform="translate(38.5 323.5)" fill="none" stroke="#fff" stroke-width="1" opacity="0.26"/>
    <line id="Line_82" data-name="Line 82" y1="19" x2="95" transform="translate(57.5 438.5)" fill="none" stroke="#fff" stroke-width="1" opacity="0.26"/>
    <g id="Group_5986" data-name="Group 5986" transform="translate(-613 203.721)">
      <g id="Ellipse_1_copy-15" data-name="Ellipse 1 copy" transform="translate(945.37 245.017)" fill="none" stroke="#fff" stroke-width="1">
        <circle cx="16.125" cy="16.125" r="16.125" stroke="none"/>
        <circle cx="16.125" cy="16.125" r="15.625" fill="none"/>
      </g>
      <ellipse id="Ellipse_1-8" data-name="Ellipse 1" cx="13.798" cy="13.772" rx="13.798" ry="13.772" transform="translate(947.74 247.386)" fill="#fff" opacity="0.23"/>
      <g id="Ellipse_1_copy-16" data-name="Ellipse 1 copy" transform="translate(935.193 234.839)" fill="none" stroke="#fff" stroke-width="8" opacity="0.142">
        <circle cx="26.302" cy="26.302" r="26.302" stroke="none"/>
        <circle cx="26.302" cy="26.302" r="22.302" fill="none"/>
      </g>
    </g>
    <path id="Path_3140" data-name="Path 3140" d="M1412.822,257.8l29.721,46.266" transform="translate(-1107 137)" fill="none" stroke="#fff" stroke-width="1" opacity="0.26"/>
    <line id="Line_83" data-name="Line 83" x2="127" y2="25" transform="translate(193.5 443.5)" fill="none" stroke="#fff" stroke-width="1" opacity="0.26"/>
    <g id="router_2_" data-name="router (2)" transform="translate(163 408.5)">
      <path id="Path_3141" data-name="Path 3141" d="M30,43.587h.293v.587h.587v-.587h.293V43H30Z" transform="translate(-18.37 -24.022)" fill="#fff"/>
      <path id="Path_3142" data-name="Path 3142" d="M20.435,39.88a.88.88,0,0,0-.88-.88H4.88a.88.88,0,0,0-.88.88v2.641H20.435ZM6.054,41.2a.734.734,0,1,1-1.467,0v-.88a.734.734,0,1,1,1.467,0Zm2.054,0a.734.734,0,1,1-1.467,0v-.88a.734.734,0,0,1,1.467,0Zm2.054,0a.734.734,0,1,1-1.467,0v-.88a.734.734,0,1,1,1.467,0Zm3.228.44a.293.293,0,0,1-.293.293H11.337a.293.293,0,0,1-.293-.293V39.88a.293.293,0,0,1,.293-.293H13.1a.293.293,0,0,1,.293.293Zm2.935,0a.293.293,0,0,1-.293.293H14.272a.293.293,0,0,1-.293-.293V39.88a.293.293,0,0,1,.293-.293h1.761a.293.293,0,0,1,.293.293Zm2.935,0a.293.293,0,0,1-.293.293H17.207a.293.293,0,0,1-.293-.293V39.88a.293.293,0,0,1,.293-.293h1.761a.293.293,0,0,1,.293.293Z" transform="translate(0 -21.196)" fill="#fff"/>
      <path id="Path_3143" data-name="Path 3143" d="M50,43.587h.293v.587h.587v-.587h.293V43H50Z" transform="translate(-32.5 -24.022)" fill="#fff"/>
      <path id="Path_3144" data-name="Path 3144" d="M8.147,43A.147.147,0,0,0,8,43.147v.88a.147.147,0,1,0,.293,0v-.88A.147.147,0,0,0,8.147,43Z" transform="translate(-2.826 -24.022)" fill="#fff"/>
      <path id="Path_3145" data-name="Path 3145" d="M22.147,43a.147.147,0,0,0-.147.147v.88a.147.147,0,1,0,.293,0v-.88A.147.147,0,0,0,22.147,43Z" transform="translate(-12.717 -24.022)" fill="#fff"/>
      <path id="Path_3146" data-name="Path 3146" d="M15.147,43a.147.147,0,0,0-.147.147v.88a.147.147,0,1,0,.293,0v-.88A.147.147,0,0,0,15.147,43Z" transform="translate(-7.772 -24.022)" fill="#fff"/>
      <path id="Path_3147" data-name="Path 3147" d="M40,43.587h.293v.587h.587v-.587h.293V43H40Z" transform="translate(-25.435 -24.022)" fill="#fff"/>
      <path id="Path_3148" data-name="Path 3148" d="M50,25h1.174v3.522H50Z" transform="translate(-32.5 -11.304)" fill="#fff"/>
      <path id="Path_3149" data-name="Path 3149" d="M10,25h1.174v3.522H10Z" transform="translate(-4.239 -11.304)" fill="#fff"/>
      <path id="Path_3150" data-name="Path 3150" d="M51,13.109h.587V9.293a.293.293,0,1,0-.587,0Z" transform="translate(-33.207)" fill="#fff"/>
      <path id="Path_3151" data-name="Path 3151" d="M11,13.109h.587V9.293a.293.293,0,0,0-.587,0Z" transform="translate(-4.946)" fill="#fff"/>
      <path id="Path_3152" data-name="Path 3152" d="M7,53H8.174v.587H7Z" transform="translate(-2.12 -31.087)" fill="#fff"/>
      <path id="Path_3153" data-name="Path 3153" d="M53,53h1.174v.587H53Z" transform="translate(-34.62 -31.087)" fill="#fff"/>
    </g>
    <g id="laptop_5_" data-name="laptop (5)" transform="translate(339 441.59)">
      <g id="Group_5987" data-name="Group 5987" transform="translate(0 16.713)">
        <path id="Path_3154" data-name="Path 3154" d="M19.248,71.123a.1.1,0,0,0-.074-.034H.1A.1.1,0,0,0,0,71.2a2.319,2.319,0,0,0,2.524,1.784H16.747A2.319,2.319,0,0,0,19.271,71.2.1.1,0,0,0,19.248,71.123ZM11.07,72.367H8.2v-.66H11.07Z" transform="translate(0 -60.328)" fill="#fff"/>
        <path id="Path_3155" data-name="Path 3155" d="M8.9,26.787H24.016a.4.4,0,0,0,.4-.4V17.109a.4.4,0,0,0-.4-.4H8.9a.4.4,0,0,0-.4.4v9.282A.4.4,0,0,0,8.9,26.787ZM9.892,18.1H23.026v7.3H9.892V18.1Z" transform="translate(-6.823 -16.713)" fill="#fff"/>
      </g>
    </g>
    <g id="noun_sensor_381031" transform="translate(264 345.025)">
      <g id="Group_5988" data-name="Group 5988" transform="translate(17.875 27.475)">
        <circle id="Ellipse_190" data-name="Ellipse 190" cx="2.142" cy="2.142" r="2.142" transform="translate(6.377 4.124)" fill="#fff"/>
        <path id="Path_3156" data-name="Path 3156" d="M30.654,34.8a.756.756,0,0,0-1.085,0,5.776,5.776,0,0,0,0,8.123.757.757,0,0,0,1.057-1.085,4.214,4.214,0,0,1,0-5.953A.782.782,0,0,0,30.654,34.8Z" transform="translate(-25.111 -32.6)" fill="#fff"/>
        <path id="Path_3157" data-name="Path 3157" d="M59.689,34.8A.767.767,0,0,0,58.6,35.889a4.214,4.214,0,0,1,0,5.953.757.757,0,1,0,1.057,1.085A5.751,5.751,0,0,0,59.689,34.8Z" transform="translate(-47.109 -32.6)" fill="#fff"/>
        <path id="Path_3158" data-name="Path 3158" d="M65.6,27.8a.756.756,0,0,0,0,1.085,6.984,6.984,0,0,1,0,9.875.757.757,0,1,0,1.057,1.085A8.521,8.521,0,0,0,66.689,27.8.756.756,0,0,0,65.6,27.8Z" transform="translate(-52.161 -27.547)" fill="#fff"/>
        <path id="Path_3159" data-name="Path 3159" d="M21.443,28.789A.767.767,0,0,0,20.358,27.7a8.546,8.546,0,0,0,0,12.045.757.757,0,1,0,1.057-1.085A7.01,7.01,0,0,1,21.443,28.789Z" transform="translate(-17.875 -27.475)" fill="#fff"/>
      </g>
    </g>
  </g>
</svg>
