<svg width="35" height="32" viewBox="0 0 35 32" fill="none" xmlns="http://www.w3.org/2000/svg">
<g id="lets-icons:user-alt">
<rect width="35" height="32" fill="#FDFDFD"/>
<g id="Group">
<path id="Vector" d="M17.5 15.8519C21.2065 15.8519 24.2112 13.1987 24.2112 9.92593C24.2112 6.65313 21.2065 4 17.5 4C13.7935 4 10.7888 6.65313 10.7888 9.92593C10.7888 13.1987 13.7935 15.8519 17.5 15.8519Z" stroke="#262825" stroke-width="2.5" stroke-linecap="round"/>
<path id="Vector_2" d="M6.32246 26.6964C7.43149 22.5601 12.084 20.2964 16.901 20.2964H18.099C22.9159 20.2964 27.5685 22.5586 28.6775 26.6964C28.8923 27.4979 29.0634 28.3364 29.159 29.1882C29.2513 30.0031 28.4929 30.6668 27.5668 30.6668H7.43317C6.50702 30.6668 5.74865 30.0016 5.84093 29.1882C5.93657 28.3364 6.1077 27.4979 6.32246 26.6964Z" stroke="#262825" stroke-width="2.5" stroke-linecap="round"/>
</g>
</g>
</svg>
