<svg width="35" height="36" viewBox="0 0 35 36" fill="none" xmlns="http://www.w3.org/2000/svg">
<g id="basil:share-outline">
<path id="Vector" fill-rule="evenodd" clip-rule="evenodd" d="M20.6664 8.42811C20.6665 7.32078 21.0211 6.24844 21.6686 5.39721C22.3161 4.54598 23.2157 3.9696 24.2112 3.7681C25.2067 3.56661 26.2353 3.75272 27.1185 4.29414C28.0016 4.83555 28.6836 5.6981 29.046 6.73206C29.4084 7.76602 29.4283 8.90613 29.1024 9.9545C28.7764 11.0029 28.1251 11.8933 27.2616 12.4713C26.398 13.0493 25.3767 13.2783 24.3748 13.1186C23.373 12.9589 22.4539 12.4206 21.7771 11.5971L18.1544 13.7583L14.1011 16.2914C14.6678 17.3824 14.8164 18.6743 14.5144 19.8848L21.7771 24.2175C22.4876 23.354 23.4634 22.8061 24.519 22.6777C25.5746 22.5493 26.6366 22.8494 27.5032 23.521C28.3698 24.1926 28.9808 25.189 29.22 26.3208C29.4592 27.4527 29.31 28.6412 28.8007 29.6606C28.2915 30.6801 27.4576 31.4595 26.4576 31.8508C25.4575 32.2421 24.3609 32.2181 23.376 31.7833C22.3911 31.3485 21.5865 30.5331 21.115 29.4922C20.6435 28.4512 20.5379 27.2571 20.8184 26.1367L13.5557 21.8054C13.0022 22.4788 12.284 22.9646 11.4859 23.2054C10.6879 23.4463 9.84347 23.432 9.05259 23.1644C8.26171 22.8968 7.55747 22.387 7.0232 21.6953C6.48892 21.0036 6.14698 20.159 6.03783 19.2615C5.92868 18.3639 6.05689 17.4509 6.40729 16.6305C6.75768 15.8102 7.3156 15.1167 8.01503 14.6323C8.71446 14.1479 9.52612 13.8927 10.354 13.8971C11.1818 13.9014 11.9912 14.165 12.6864 14.6567L17.1798 11.8479L20.8184 9.67645C20.7173 9.26957 20.6662 8.84976 20.6664 8.42811ZM24.9998 5.87603C24.3809 5.87603 23.7874 6.14491 23.3498 6.62352C22.9123 7.10213 22.6664 7.75126 22.6664 8.42811C22.6664 9.10497 22.9123 9.7541 23.3498 10.2327C23.7874 10.7113 24.3809 10.9802 24.9998 10.9802C25.6186 10.9802 26.2121 10.7113 26.6497 10.2327C27.0872 9.7541 27.3331 9.10497 27.3331 8.42811C27.3331 7.75126 27.0872 7.10213 26.6497 6.62352C26.2121 6.14491 25.6186 5.87603 24.9998 5.87603ZM10.3331 16.0844C9.71424 16.0844 9.12075 16.3532 8.68317 16.8319C8.24558 17.3105 7.99975 17.9596 7.99975 18.6364C7.99975 19.3133 8.24558 19.9624 8.68317 20.441C9.12075 20.9197 9.71424 21.1885 10.3331 21.1885C10.9519 21.1885 11.5454 20.9197 11.983 20.441C12.4206 19.9624 12.6664 19.3133 12.6664 18.6364C12.6664 17.9596 12.4206 17.3105 11.983 16.8319C11.5454 16.3532 10.9519 16.0844 10.3331 16.0844ZM22.6664 27.3864C22.6664 26.7096 22.9123 26.0605 23.3498 25.5819C23.7874 25.1032 24.3809 24.8344 24.9998 24.8344C25.6186 24.8344 26.2121 25.1032 26.6497 25.5819C27.0872 26.0605 27.3331 26.7096 27.3331 27.3864C27.3331 28.0633 27.0872 28.7124 26.6497 29.191C26.2121 29.6697 25.6186 29.9385 24.9998 29.9385C24.3809 29.9385 23.7874 29.6697 23.3498 29.191C22.9123 28.7124 22.6664 28.0633 22.6664 27.3864Z" fill="#262825"/>
</g>
</svg>
