<svg width="18" height="19" viewBox="0 0 18 19" fill="none" xmlns="http://www.w3.org/2000/svg">
<g id="teenyicons:star-solid" clip-path="url(#clip0_302_9264)">
<rect width="18" height="18" transform="translate(0 0.918457)" fill="#FEFEFE"/>
<path id="Vector" d="M9.53741 1.8531C9.48777 1.75294 9.41114 1.66864 9.31615 1.6097C9.22116 1.55076 9.1116 1.51953 8.99981 1.51953C8.88802 1.51953 8.77846 1.55076 8.68347 1.6097C8.58848 1.66864 8.51185 1.75294 8.46221 1.8531L6.00581 6.8295L0.513408 7.6275C0.402588 7.64359 0.298483 7.69038 0.212871 7.76256C0.127259 7.83475 0.0635559 7.92945 0.0289692 8.03596C-0.00561759 8.14246 -0.00970785 8.25652 0.0171611 8.36523C0.0440301 8.47395 0.100786 8.57297 0.181008 8.6511L4.15541 12.5247L3.21701 17.9955C3.19818 18.1058 3.21055 18.2191 3.25272 18.3227C3.2949 18.4263 3.36519 18.516 3.45567 18.5818C3.54614 18.6476 3.65321 18.6867 3.76476 18.6949C3.87632 18.703 3.98794 18.6798 4.08701 18.6279L8.99981 16.0443L13.9126 18.6279C14.0117 18.6798 14.1233 18.703 14.2349 18.6949C14.3464 18.6867 14.4535 18.6476 14.544 18.5818C14.6344 18.516 14.7047 18.4263 14.7469 18.3227C14.7891 18.2191 14.8014 18.1058 14.7826 17.9955L13.8442 12.5235L17.8186 8.6511C17.8988 8.57297 17.9556 8.47395 17.9825 8.36523C18.0093 8.25652 18.0052 8.14246 17.9706 8.03596C17.9361 7.92945 17.8724 7.83475 17.7867 7.76256C17.7011 7.69038 17.597 7.64359 17.4862 7.6275L11.9938 6.8295L9.53741 1.8531Z" fill="#FFD600"/>
</g>
<defs>
<clipPath id="clip0_302_9264">
<rect width="18" height="18" fill="white" transform="translate(0 0.918457)"/>
</clipPath>
</defs>
</svg>
