<svg width="27" height="28" viewBox="0 0 27 28" fill="none" xmlns="http://www.w3.org/2000/svg">
<path id="Vector" d="M26.967 25.8007L19.4342 18.2679C21.2444 16.0948 22.147 13.3074 21.9544 10.4857C21.7618 7.66394 20.4887 5.02509 18.4001 3.11808C16.3114 1.21108 13.5679 0.182732 10.7403 0.24698C7.91275 0.311227 5.2188 1.46312 3.21889 3.46303C1.21898 5.46294 0.0670867 8.15689 0.00283893 10.9845C-0.0614088 13.812 0.966935 16.5555 2.87394 18.6442C4.78095 20.7329 7.4198 22.0059 10.2415 22.1986C13.0633 22.3912 15.8506 21.4885 18.0238 19.6783L25.5566 27.2111L26.967 25.8007ZM2.03058 11.2518C2.03058 9.47632 2.55708 7.74069 3.54349 6.26441C4.52991 4.78813 5.93194 3.63752 7.57229 2.95806C9.21264 2.27861 11.0176 2.10083 12.759 2.44721C14.5004 2.7936 16.1 3.64858 17.3554 4.90405C18.6109 6.15952 19.4659 7.75909 19.8123 9.50047C20.1587 11.2419 19.9809 13.0469 19.3014 14.6872C18.622 16.3276 17.4714 17.7296 15.9951 18.716C14.5188 19.7024 12.7832 20.2289 11.0077 20.2289C8.62761 20.2263 6.34579 19.2796 4.66283 17.5967C2.97987 15.9137 2.03322 13.6319 2.03058 11.2518Z" fill="#262825"/>
</svg>
